<svg xmlns="http://www.w3.org/2000/svg" xmlns:xlink="http://www.w3.org/1999/xlink" viewBox="0 0 744 744"><defs><clipPath id="clip-path"><path d="M535.64,631.57a175,175,0,0,1-337-86.17A173.4,173.4,0,0,0,292.51,501a104.91,104.91,0,1,0,153.76-5.61l-32.13-32-42.06-41.94-.08-.07L322.49,372l.07-.08-74-74.19c-1.82-1.82-3.69-3.57-5.61-5.22A174.83,174.83,0,1,1,535.64,112.43,171.91,171.91,0,0,1,545,198.66,173.35,173.35,0,0,0,451.49,243a104.91,104.91,0,1,0-153.76,5.61l7.37,7.35h0l66.81,66.62.08.08,49.44,49.29-.07.08,23.95,24,50.09,50.24c1.82,1.82,3.69,3.57,5.61,5.22a174.21,174.21,0,0,1,34.62,180.08Z" style="fill:none"/></clipPath><linearGradient id="linear-gradient" x1="506.35" y1="112.89" x2="506.35" y2="284.92" gradientUnits="userSpaceOnUse"><stop offset="0" stop-color="#fff" stop-opacity="0"/><stop offset="0.09" stop-color="#cbcbcb" stop-opacity="0.2"/><stop offset="1"/></linearGradient><linearGradient id="linear-gradient-2" x1="238.18" y1="630.67" x2="238.18" y2="462.64" xlink:href="#linear-gradient"/></defs><g style="isolation:isolate"><g id="blue"><path d="M692.88,248.21a174.09,174.09,0,0,0-246.83,0l-.73.73-74.13,74.35L325.84,291s-32.71-47.47-35.19-49.69A174.55,174.55,0,0,0,0,372H0A174.45,174.45,0,0,0,298,495.79l.73-.73,73.4-73.62,75.14,69.66s4,9.73,6.69,12.11A174.55,174.55,0,0,0,744,372h0A174.81,174.81,0,0,0,692.88,248.21Zm-444.37,198A104.6,104.6,0,0,1,69.87,372h0a104.66,104.66,0,0,1,178.72-74.27l74,74.19Zm395,.07a104.52,104.52,0,0,1-148.1,0L445.32,396l-23.95-24h0l74-74.27a104.88,104.88,0,0,1,148.1,148.54Z" style="fill:#fff"/><path d="M535.64,631.57a175,175,0,0,1-337-86.17A173.4,173.4,0,0,0,292.51,501a104.91,104.91,0,1,0,153.76-5.61l-32.13-32-42.06-41.94-.08-.07L322.49,372l.07-.08-74-74.19c-1.82-1.82-3.69-3.57-5.61-5.22A174.83,174.83,0,1,1,535.64,112.43,171.91,171.91,0,0,1,545,198.66,173.35,173.35,0,0,0,451.49,243a104.91,104.91,0,1,0-153.76,5.61l7.37,7.35h0l66.81,66.62.08.08,49.44,49.29-.07.08,23.95,24,50.09,50.24c1.82,1.82,3.69,3.57,5.61,5.22a174.21,174.21,0,0,1,34.62,180.08Z" style="fill:#0388f6"/><g style="clip-path:url(#clip-path)"><path d="M580.86,213.33c-34,4.72-102.39,4.78-129.37,29.65-42.63-57-19-89.65,5.08-130.55h79.07C597.86,110,584.86,184.44,580.86,213.33Z" style="mix-blend-mode:multiply;opacity:0.8;fill:url(#linear-gradient)"/></g><g style="clip-path:url(#clip-path)"><path d="M328.53,634l-153-2.43c-10.51-27.58-63.1-109.25,12-110.9,34-4.73,70.33-54,105-19.65C328.53,530.67,299.72,595.06,328.53,634Z" style="mix-blend-mode:multiply;opacity:0.8;fill:url(#linear-gradient-2)"/></g><path d="M731.22,306.13a174.32,174.32,0,0,0-285.17-57.92l-.73.73-22.54,22.6,47.79,51.11,24.84-24.92a104.89,104.89,0,1,1,90.34,178V546.3A175.29,175.29,0,0,0,731.22,306.13ZM248.51,446.2A104.6,104.6,0,0,1,69.87,372a105.62,105.62,0,0,1,7.66-39.55A104.53,104.53,0,0,1,166,267.37l-22.48-67.66A175,175,0,1,0,298,495.79l.73-.73,45.16-45.29-54.91-44.12Z" style="fill:#fff"/></g></g></svg>